<?xml version="1.0" encoding="UTF-8"?><svg xmlns="http://www.w3.org/2000/svg" xmlns:xlink="http://www.w3.org/1999/xlink" height="470.5" preserveAspectRatio="xMidYMid meet" version="1.0" viewBox="-0.4 -2.0 296.3 470.5" width="296.3" zoomAndPan="magnify"><g id="change1_1"><path d="M286.49,4.42c-20.88,66.49-48.32,130.85-81.9,191.92C171,257.42,131.44,315.14,86.55,368.45 c-24.6,29.21-50.8,57.04-78.44,83.38c0-21.99,0-43.98,0-65.98c0-2.49-2.05-3.4-4.13-2.39C1.62,384.62,0,387.81,0,390.36 c0,23.82,0,47.63,0,71.45c0,0.75,0.2,1.34,0.52,1.79c-0.92,2.49-0.73,4.91,1.6,4.91c26.09,0,52.17,0,78.26,0 c4.38,0,8.68-10.29,3.87-10.29c-24.14,0-48.28,0-72.41,0c49.81-47.65,95.02-100.04,134.73-156.39 c40.86-57.98,76.01-119.86,104.78-184.7c16.2-36.51,30.3-73.94,42.27-112.04C295.85-2.01,288.24-1.16,286.49,4.42z"/></g></svg>